<svg id="Calque_1" data-name="Calque 1" xmlns="http://www.w3.org/2000/svg" viewBox="0 0 425.13 176">
  <defs>
    <style>
      .cls-1{fill:#85878f;}.cls-2{fill:#dbdadc;}.cls-3{fill:#e6406d;}
    </style>
  </defs>
  <path class="cls-1" d="M172.63 68.83l-3.87 4q-4.82-4.68-9.43-4.68a7.12 7.12 0 0 0-5 1.93 6 6 0 0 0-2.09 4.51 6.68 6.68 0 0 0 1.72 4.34q1.72 2.1 7.23 4.94 6.71 3.48 9.13 6.7a12.21 12.21 0 0 1 2.37 7.34 13.18 13.18 0 0 1-4 9.75 13.8 13.8 0 0 1-10.11 4 17.66 17.66 0 0 1-7.72-1.76 16.77 16.77 0 0 1-6.09-4.85l3.78-4.3q4.61 5.2 9.77 5.2a8.8 8.8 0 0 0 6.16-2.32 7.16 7.16 0 0 0 2.52-5.47 7 7 0 0 0-1.68-4.59q-1.68-2-7.57-5-6.33-3.26-8.61-6.44a12.13 12.13 0 0 1-2.28-7.26 11.79 11.79 0 0 1 3.59-8.87 12.67 12.67 0 0 1 9.18-3.52q6.46.04 13 6.35zM188.01 124.48h6.36l26.53-60.76h-6.4L198.91 99.7l-16.06-35.98h-6.36l19.18 43.19-7.66 17.57zM226.92 63.72h6v8.38a25.12 25.12 0 0 1 8-7.2 19.61 19.61 0 0 1 9.53-2.38 16.55 16.55 0 0 1 9.3 2.66 15.85 15.85 0 0 1 6 7.17q1.93 4.51 1.93 14v24.05h-6V88.16q0-8.08-.67-10.78a11.85 11.85 0 0 0-4-7 12.1 12.1 0 0 0-7.73-2.34 14.83 14.83 0 0 0-9.77 3.61 16.9 16.9 0 0 0-5.69 8.93q-.86 3.48-.86 12.71v17.14h-6zM323.68 45.68v64.77h-5.93v-8a25.76 25.76 0 0 1-8.48 6.92 23.7 23.7 0 0 1-27.27-4.91A24.12 24.12 0 0 1 275 87a23.68 23.68 0 0 1 7.08-17.27 23.11 23.11 0 0 1 17.05-7.17A22.06 22.06 0 0 1 309.57 65a23.76 23.76 0 0 1 8.18 7.35V45.68zm-24 22.63a18.14 18.14 0 0 0-16 9.4 18.93 18.93 0 0 0 0 18.87 18.42 18.42 0 0 0 6.8 7 17.75 17.75 0 0 0 9.16 2.51 18.77 18.77 0 0 0 9.35-2.49 17.39 17.39 0 0 0 6.8-6.74 19.2 19.2 0 0 0 2.38-9.56 18.6 18.6 0 0 0-5.34-13.56 17.69 17.69 0 0 0-13.18-5.42zM373.11 94.95l5.07 2.66a27.63 27.63 0 0 1-5.76 7.9 22.85 22.85 0 0 1-7.35 4.57 25.61 25.61 0 0 1-9.24 1.57q-11.43 0-17.88-7.49a25.28 25.28 0 0 1-6.45-16.94 25 25 0 0 1 5.5-15.85q6.92-8.85 18.53-8.85 12 0 19.09 9.06 5.07 6.4 5.16 16h-42a19 19 0 0 0 5.2 13.35 16.6 16.6 0 0 0 12.43 5.21 20 20 0 0 0 6.95-1.24 18.3 18.3 0 0 0 5.74-3.3 28.06 28.06 0 0 0 5.01-6.65zm0-12.58a20 20 0 0 0-3.51-7.69 16.6 16.6 0 0 0-6.08-4.68 18.67 18.67 0 0 0-8-1.76 17.14 17.14 0 0 0-11.83 4.42q-3.61 3.22-5.46 9.67zM383.94 63.72h7.22l12.43 17.1 12.3-17.1h7.23L407.2 85.8l17.92 24.65h-7.32l-14.22-19.63-14.14 19.63h-7.18L400 85.84z"/>
  <path class="cls-2" d="M97.85 67.38L72.17 49.59A11.72 11.72 0 1 0 59.3 69.13l25.22 17.48c17 11.76 21.64 34.59 10.44 50.91A34.71 34.71 0 0 1 72.38 152 37.63 37.63 0 0 1 44 145.77l-25.08-17.38-.2-.16a11.72 11.72 0 0 0-14.12 18.7h.05l.06.05.37.25L30.67 165a60.83 60.83 0 0 0 45.93 10 57.93 57.93 0 0 0 37.64-24.22c18.49-26.91 11.13-64.32-16.39-83.4z"/>
  <path class="cls-3" d="M125.59 29.07l-.07-.06c-.13-.1-.26-.17-.39-.26L99.52 11A60.86 60.86 0 0 0 53.59 1 57.93 57.93 0 0 0 16 25.23c-18.53 26.9-11.18 64.31 16.35 83.39L58 126.41a11.72 11.72 0 0 0 14-18.8 11.37 11.37 0 0 0-1.13-.74l-25.2-17.48C28.71 77.63 24 54.79 35.23 38.48A34.7 34.7 0 0 1 57.81 24a37.62 37.62 0 0 1 28.39 6.23l25.09 17.39.18.15a11.71 11.71 0 0 0 14.12-18.7zM153.84 150.4a3 3 0 0 1 0 .41 1.1 1.1 0 0 1-.07.29.42.42 0 0 1-.12.17.28.28 0 0 1-.18.06H147a.76.76 0 0 1-.49-.19.83.83 0 0 1-.23-.68v-14.79a.32.32 0 0 1 0-.17.31.31 0 0 1 .16-.12 1.58 1.58 0 0 1 .3-.07 3.52 3.52 0 0 1 .94 0 1.64 1.64 0 0 1 .3.07.31.31 0 0 1 .16.12.32.32 0 0 1 0 .17v13.82h5.26a.3.3 0 0 1 .18.06.44.44 0 0 1 .12.16 1 1 0 0 1 .07.28 3.18 3.18 0 0 1 .07.41zM160.59 135.05a6.91 6.91 0 0 1 0 .7 4 4 0 0 1-.11.61 3.81 3.81 0 0 1-.21.57 4.7 4.7 0 0 1-.32.57l-1.59 2.5-.13.16a.63.63 0 0 1-.18.12l-.25.06H157.12a.5.5 0 0 1-.19-.06.16.16 0 0 1-.06-.12.39.39 0 0 1 0-.19l1.51-3.4V135a1.79 1.79 0 0 1 .06-.52.64.64 0 0 1 .2-.31.69.69 0 0 1 .34-.15 3 3 0 0 1 .5 0 2.91 2.91 0 0 1 .49 0 .64.64 0 0 1 .33.15.66.66 0 0 1 .19.31 1.79 1.79 0 0 1 .1.57zM176.3 150.45a2.84 2.84 0 0 1 0 .39.85.85 0 0 1-.08.28.43.43 0 0 1-.13.16.27.27 0 0 1-.16 0h-7a.76.76 0 0 1-.49-.19.84.84 0 0 1-.23-.68v-14.19a.84.84 0 0 1 .23-.67.77.77 0 0 1 .49-.19h7a.28.28 0 0 1 .16.05.31.31 0 0 1 .12.16 1.33 1.33 0 0 1 .08.28 3 3 0 0 1 0 .41 2.85 2.85 0 0 1 0 .39 1.22 1.22 0 0 1-.08.27.33.33 0 0 1-.12.15.28.28 0 0 1-.16 0h-5.73v5h4.8a.26.26 0 0 1 .16.06.41.41 0 0 1 .12.15.8.8 0 0 1 .07.27 3.13 3.13 0 0 1 0 .41 2.67 2.67 0 0 1 0 .38.82.82 0 0 1-.07.26.36.36 0 0 1-.12.14.34.34 0 0 1-.16 0h-4.92v5.72h5.81a.3.3 0 0 1 .16 0 .46.46 0 0 1 .13.16.78.78 0 0 1 .08.27 3 3 0 0 1 .04.56zM192.83 150.57a1.59 1.59 0 0 1 .18.43.26.26 0 0 1-.07.25.62.62 0 0 1-.34.13 5.1 5.1 0 0 1-.62 0h-.57a1.09 1.09 0 0 1-.32-.07.5.5 0 0 1-.18-.12.6.6 0 0 1-.11-.18l-3.26-6.36-3.3 6.36a.89.89 0 0 1-.12.18.45.45 0 0 1-.19.12 1.29 1.29 0 0 1-.32.06h-.54a4.55 4.55 0 0 1-.59 0 .5.5 0 0 1-.3-.12.29.29 0 0 1-.05-.25 1.47 1.47 0 0 1 .18-.43l4-7.35-3.82-7.1a2 2 0 0 1-.18-.44.26.26 0 0 1 .05-.26.56.56 0 0 1 .32-.12h1.17a1.41 1.41 0 0 1 .34.06.38.38 0 0 1 .18.12l.12.18 3.15 6 3.13-6 .12-.18a.36.36 0 0 1 .16-.12 1.06 1.06 0 0 1 .3-.06h.52a4.19 4.19 0 0 1 .57 0 .61.61 0 0 1 .32.12.27.27 0 0 1 .07.25 1.47 1.47 0 0 1-.16.44l-3.81 7.05zM208.56 140a6.12 6.12 0 0 1-.36 2.16 4.64 4.64 0 0 1-1 1.64 4.57 4.57 0 0 1-1.65 1 6.65 6.65 0 0 1-2.34.37h-1.71V151a.3.3 0 0 1-.05.17.34.34 0 0 1-.16.12 1.43 1.43 0 0 1-.29.07 3.57 3.57 0 0 1-.94 0 1.64 1.64 0 0 1-.3-.07.29.29 0 0 1-.16-.12.32.32 0 0 1 0-.17v-14.73a.9.9 0 0 1 .24-.7.78.78 0 0 1 .53-.21h4.05a8.45 8.45 0 0 1 1 .19 4.07 4.07 0 0 1 1.21.53 4 4 0 0 1 1 1 4.18 4.18 0 0 1 .66 1.31 5.56 5.56 0 0 1 .27 1.61zm-2.05.17a3.58 3.58 0 0 0-.33-1.63 2.48 2.48 0 0 0-.83-1 2.69 2.69 0 0 0-1-.41 6.25 6.25 0 0 0-1-.09h-1.8v6.41h1.76a3.78 3.78 0 0 0 1.47-.25 2.73 2.73 0 0 0 1-.69 2.91 2.91 0 0 0 .6-1 4.15 4.15 0 0 0 .13-1.3zM223.72 150.45a2.84 2.84 0 0 1 0 .39.85.85 0 0 1-.08.28.43.43 0 0 1-.13.16.27.27 0 0 1-.16 0h-7a.76.76 0 0 1-.49-.19.84.84 0 0 1-.23-.68v-14.19a.84.84 0 0 1 .23-.67.77.77 0 0 1 .49-.19h7a.28.28 0 0 1 .16.05.31.31 0 0 1 .12.16 1.33 1.33 0 0 1 .08.28 3 3 0 0 1 0 .41 2.84 2.84 0 0 1 0 .39 1.22 1.22 0 0 1-.08.27.33.33 0 0 1-.12.15.28.28 0 0 1-.16 0h-5.73v5h4.92a.26.26 0 0 1 .16.06.41.41 0 0 1 .12.15.8.8 0 0 1 .07.27 3.11 3.11 0 0 1 0 .41 2.66 2.66 0 0 1 0 .38.82.82 0 0 1-.07.26.36.36 0 0 1-.12.14.34.34 0 0 1-.16 0h-4.92v5.72h5.81a.3.3 0 0 1 .16 0 .47.47 0 0 1 .13.16.79.79 0 0 1 .08.27 3 3 0 0 1-.08.56zM240.68 151a.41.41 0 0 1 0 .17.26.26 0 0 1-.15.12 1.12 1.12 0 0 1-.32.07 4 4 0 0 1-.54 0 3.22 3.22 0 0 1-.48 0 1 1 0 0 1-.3-.08.42.42 0 0 1-.18-.16 1 1 0 0 1-.11-.25l-1.35-3.77c-.16-.43-.32-.82-.49-1.18a3.8 3.8 0 0 0-.61-.93 2.49 2.49 0 0 0-.83-.61 2.74 2.74 0 0 0-1.14-.22h-1.3V151a.3.3 0 0 1-.05.17.33.33 0 0 1-.16.12 1.49 1.49 0 0 1-.29.07 3.57 3.57 0 0 1-.94 0 1.62 1.62 0 0 1-.3-.07.29.29 0 0 1-.16-.12.32.32 0 0 1 0-.17v-14.8a.84.84 0 0 1 .23-.67.77.77 0 0 1 .49-.19h4.04l.66.07a5.21 5.21 0 0 1 1.5.51 3.57 3.57 0 0 1 1.09.88 3.63 3.63 0 0 1 .66 1.22 4.93 4.93 0 0 1 .22 1.51 4.79 4.79 0 0 1-.2 1.44 3.52 3.52 0 0 1-.57 1.13 4 4 0 0 1-.89.85 5.67 5.67 0 0 1-1.17.6 2.73 2.73 0 0 1 .66.44 3.6 3.6 0 0 1 .55.63 5.78 5.78 0 0 1 .48.85c.15.32.3.68.45 1.09l1.31 3.52c.11.29.17.5.2.62a1.17 1.17 0 0 1-.01.3zm-2.94-11.23a3 3 0 0 0-.38-1.59 2.17 2.17 0 0 0-1.29-.93 3.72 3.72 0 0 0-.64-.12h-2.57v5.38h1.9a3.88 3.88 0 0 0 1.33-.2 2.59 2.59 0 0 0 .93-.57 2.22 2.22 0 0 0 .55-.86 3.23 3.23 0 0 0 .18-1.09zM256.49 136.27a3 3 0 0 1 0 .41.91.91 0 0 1-.07.28.39.39 0 0 1-.12.15.28.28 0 0 1-.16 0H252V151a.34.34 0 0 1 0 .17.3.3 0 0 1-.16.12 1.64 1.64 0 0 1-.3.07 3.1 3.1 0 0 1-.47 0 3.15 3.15 0 0 1-.46 0 1.72 1.72 0 0 1-.31-.07.29.29 0 0 1-.16-.12.32.32 0 0 1 0-.17v-13.85h-4.24a.29.29 0 0 1-.16 0 .33.33 0 0 1-.12-.15 1.19 1.19 0 0 1-.08-.28 2.69 2.69 0 0 1 0-.41 2.88 2.88 0 0 1 0-.41 1.29 1.29 0 0 1 .08-.29.3.3 0 0 1 .12-.16.29.29 0 0 1 .16-.05h10.2a.29.29 0 0 1 .16.05.35.35 0 0 1 .13.16 1 1 0 0 1 .07.29 3.25 3.25 0 0 1 .03.37zM264.57 151a.32.32 0 0 1 0 .17.29.29 0 0 1-.16.12 1.64 1.64 0 0 1-.3.07 3.51 3.51 0 0 1-.93 0 1.6 1.6 0 0 1-.31-.07.29.29 0 0 1-.16-.12.32.32 0 0 1 0-.17v-15.33a.3.3 0 0 1 0-.17.37.37 0 0 1 .17-.12 1.74 1.74 0 0 1 .3-.07 2.7 2.7 0 0 1 .45 0 2.86 2.86 0 0 1 .47 0 1.64 1.64 0 0 1 .3.07.31.31 0 0 1 .16.12.32.32 0 0 1 0 .17zM280.36 146.85a5 5 0 0 1-.38 2 4.26 4.26 0 0 1-1.05 1.49 4.47 4.47 0 0 1-1.59.92 6.18 6.18 0 0 1-2 .31 6.53 6.53 0 0 1-1.37-.13 7.08 7.08 0 0 1-1.12-.33 5.09 5.09 0 0 1-.83-.41 2.36 2.36 0 0 1-.47-.36 1 1 0 0 1-.19-.38 2.33 2.33 0 0 1-.06-.61 3.56 3.56 0 0 1 0-.45 1.37 1.37 0 0 1 .07-.29.33.33 0 0 1 .12-.15.28.28 0 0 1 .16 0 .89.89 0 0 1 .45.21 6.71 6.71 0 0 0 .74.46 7 7 0 0 0 1.09.46 4.67 4.67 0 0 0 1.48.21 3.5 3.5 0 0 0 1.16-.18 2.67 2.67 0 0 0 .91-.53 2.26 2.26 0 0 0 .58-.83 2.94 2.94 0 0 0 .2-1.12 2.25 2.25 0 0 0-.28-1.16 3 3 0 0 0-.75-.85 6.81 6.81 0 0 0-1.06-.66l-1.22-.62a12.9 12.9 0 0 1-1.21-.7 5.12 5.12 0 0 1-1.05-.9A4.2 4.2 0 0 1 272 141a4.39 4.39 0 0 1-.29-1.67 4.51 4.51 0 0 1 .33-1.79 3.69 3.69 0 0 1 .93-1.32 4.07 4.07 0 0 1 1.42-.81 5.54 5.54 0 0 1 1.77-.28 5.24 5.24 0 0 1 1 .09 6.53 6.53 0 0 1 .93.25 4.86 4.86 0 0 1 .78.35 2.13 2.13 0 0 1 .45.31.89.89 0 0 1 .14.19.73.73 0 0 1 .06.17 1.78 1.78 0 0 1 0 .25v.38a3.89 3.89 0 0 1 0 .39 1.63 1.63 0 0 1-.05.29.4.4 0 0 1-.09.17.22.22 0 0 1-.14.05.89.89 0 0 1-.39-.17c-.18-.12-.39-.25-.65-.39a5.68 5.68 0 0 0-.91-.39 3.62 3.62 0 0 0-1.18-.18 2.86 2.86 0 0 0-1.07.18 2.18 2.18 0 0 0-.75.47 1.94 1.94 0 0 0-.44.7 2.55 2.55 0 0 0-.14.87 2.23 2.23 0 0 0 .28 1.15 3.08 3.08 0 0 0 .75.85 6.34 6.34 0 0 0 1.07.68l1.22.63c.42.21.82.44 1.22.69a5.17 5.17 0 0 1 1.07.89 4.1 4.1 0 0 1 .76 1.21 4.26 4.26 0 0 1 .28 1.64zM295.32 150.45a2.84 2.84 0 0 1 0 .39.85.85 0 0 1-.08.28.39.39 0 0 1-.13.16.27.27 0 0 1-.16 0h-7a.75.75 0 0 1-.49-.19.83.83 0 0 1-.23-.68v-14.19a.83.83 0 0 1 .23-.67.76.76 0 0 1 .49-.19h7a.29.29 0 0 1 .16.05.31.31 0 0 1 .12.16 1.48 1.48 0 0 1 .07.28 2.74 2.74 0 0 1 0 .41 2.58 2.58 0 0 1 0 .39 1.35 1.35 0 0 1-.07.27.33.33 0 0 1-.12.15.28.28 0 0 1-.16 0h-5.73v5H294a.25.25 0 0 1 .16.06.4.4 0 0 1 .13.15.85.85 0 0 1 .07.27 3.13 3.13 0 0 1 0 .41 2.67 2.67 0 0 1 0 .38.87.87 0 0 1-.07.26.35.35 0 0 1-.12.14.33.33 0 0 1-.16 0h-4.92v5.72h5.81a.29.29 0 0 1 .16 0 .42.42 0 0 1 .13.16.79.79 0 0 1 .08.27 3 3 0 0 1 .05.56zM319.93 150.45a2.82 2.82 0 0 1 0 .39.85.85 0 0 1-.08.28.39.39 0 0 1-.13.16.27.27 0 0 1-.16 0h-7a.75.75 0 0 1-.49-.19.83.83 0 0 1-.23-.68v-14.19a.83.83 0 0 1 .23-.67.77.77 0 0 1 .49-.19h7a.29.29 0 0 1 .16.05.31.31 0 0 1 .12.16 1.47 1.47 0 0 1 .07.28 2.73 2.73 0 0 1 0 .41 2.57 2.57 0 0 1 0 .39 1.34 1.34 0 0 1-.07.27.33.33 0 0 1-.12.15.28.28 0 0 1-.16 0h-5.73v5h4.92a.25.25 0 0 1 .16.06.4.4 0 0 1 .13.15.85.85 0 0 1 .07.27 3.13 3.13 0 0 1 0 .41 2.67 2.67 0 0 1 0 .38.87.87 0 0 1-.07.26.35.35 0 0 1-.12.14.33.33 0 0 1-.16 0h-4.92v5.72h5.81a.29.29 0 0 1 .16 0 .42.42 0 0 1 .13.16.78.78 0 0 1 .08.27 3 3 0 0 1-.09.56zM338.2 150.45a1.08 1.08 0 0 1-.07.42.81.81 0 0 1-.2.28.72.72 0 0 1-.28.16 1 1 0 0 1-.3 0h-.64a2 2 0 0 1-.53-.07 1.15 1.15 0 0 1-.43-.25 2.29 2.29 0 0 1-.41-.48 6.33 6.33 0 0 1-.44-.79l-4.47-9.09c-.23-.47-.47-1-.71-1.48s-.46-1-.66-1.5V151a.36.36 0 0 1 0 .17.32.32 0 0 1-.16.12 1.58 1.58 0 0 1-.3.07 3.58 3.58 0 0 1-.94 0 1.43 1.43 0 0 1-.29-.07.31.31 0 0 1-.16-.12.34.34 0 0 1 0-.17v-14.73a.81.81 0 0 1 .82-.91h1a2.14 2.14 0 0 1 .57.06 1.1 1.1 0 0 1 .41.2 1.66 1.66 0 0 1 .35.4 5.36 5.36 0 0 1 .36.63l3.44 7 .62 1.25c.2.41.39.81.57 1.2l.54 1.17.53 1.15v-2-10.67a.27.27 0 0 1 0-.16.39.39 0 0 1 .16-.13 1.08 1.08 0 0 1 .3-.08 3.6 3.6 0 0 1 .49 0 3.35 3.35 0 0 1 .45 0 1 1 0 0 1 .3.08.41.41 0 0 1 .16.13.28.28 0 0 1 0 .16zM357.13 137.53a3.65 3.65 0 0 1 0 .41 1.31 1.31 0 0 1-.07.3.38.38 0 0 1-.11.17.26.26 0 0 1-.15 0 1 1 0 0 1-.46-.23 7.23 7.23 0 0 0-.85-.52 7.42 7.42 0 0 0-1.27-.52 5.9 5.9 0 0 0-1.76-.23 4.68 4.68 0 0 0-3.81 1.81 6.15 6.15 0 0 0-1 2 9.39 9.39 0 0 0 0 5.26 5.9 5.9 0 0 0 1.08 2 4.52 4.52 0 0 0 1.65 1.23 5.18 5.18 0 0 0 2.1.42 5.53 5.53 0 0 0 1.38-.18 5 5 0 0 0 1.3-.54v-4.66h-3.4a.31.31 0 0 1-.29-.21 1.68 1.68 0 0 1-.1-.66 3.34 3.34 0 0 1 0-.4.93.93 0 0 1 .07-.27.41.41 0 0 1 .12-.16.28.28 0 0 1 .17 0h4.66a.71.71 0 0 1 .25 0 .67.67 0 0 1 .22.15.63.63 0 0 1 .16.27 1.3 1.3 0 0 1 .06.4v6.09a1.4 1.4 0 0 1-.1.56.93.93 0 0 1-.43.41 8.45 8.45 0 0 1-.85.39 9.81 9.81 0 0 1-1.08.36 9.34 9.34 0 0 1-1.12.22 8.79 8.79 0 0 1-1.12.07 7.6 7.6 0 0 1-3-.57 6.24 6.24 0 0 1-2.26-1.63 7.28 7.28 0 0 1-1.41-2.55 11.48 11.48 0 0 1 0-6.75 7.66 7.66 0 0 1 1.48-2.63 6.64 6.64 0 0 1 2.3-1.68 7.18 7.18 0 0 1 3-.6 7.48 7.48 0 0 1 1.57.16 9.36 9.36 0 0 1 1.31.38 5 5 0 0 1 1 .47 2.77 2.77 0 0 1 .54.41.88.88 0 0 1 .21.37 2.64 2.64 0 0 1 .01.68zM375.76 150.58a1.72 1.72 0 0 1 .1.44.32.32 0 0 1-.08.25.51.51 0 0 1-.3.11 4.34 4.34 0 0 1-.56 0h-.56a1.15 1.15 0 0 1-.32-.06.33.33 0 0 1-.16-.12 1.06 1.06 0 0 1-.1-.18l-1.26-3.89h-6.1l-1.2 3.84a.67.67 0 0 1-.09.19.44.44 0 0 1-.16.14 1 1 0 0 1-.31.08 3.7 3.7 0 0 1-.52 0 4 4 0 0 1-.54 0 .51.51 0 0 1-.29-.12.33.33 0 0 1-.08-.25 1.62 1.62 0 0 1 .09-.44l4.92-14.84a.65.65 0 0 1 .12-.22.5.5 0 0 1 .21-.14 1.56 1.56 0 0 1 .36-.07H370.09a1.71 1.71 0 0 1 .39.07.53.53 0 0 1 .23.14.68.68 0 0 1 .13.23zm-6.31-13.1l-2.53 8H372zM393.06 137.53a3.21 3.21 0 0 1 0 .41 1.22 1.22 0 0 1-.07.3.38.38 0 0 1-.12.17.25.25 0 0 1-.15 0 1 1 0 0 1-.45-.23 7.4 7.4 0 0 0-.85-.52 7.51 7.51 0 0 0-1.28-.52 5.88 5.88 0 0 0-1.76-.23 4.68 4.68 0 0 0-3.81 1.81 6.15 6.15 0 0 0-1 2 9.44 9.44 0 0 0 0 5.26 5.93 5.93 0 0 0 1.08 2 4.55 4.55 0 0 0 1.65 1.23 5.18 5.18 0 0 0 2.1.42 5.53 5.53 0 0 0 1.38-.18 5 5 0 0 0 1.3-.54v-4.66h-3.4a.3.3 0 0 1-.29-.21 1.64 1.64 0 0 1-.1-.66 3 3 0 0 1 0-.4.87.87 0 0 1 .07-.27.43.43 0 0 1 .12-.16.29.29 0 0 1 .17 0h4.66a.7.7 0 0 1 .25 0 .68.68 0 0 1 .23.15.67.67 0 0 1 .16.27 1.37 1.37 0 0 1 .05.4v6.09a1.41 1.41 0 0 1-.1.56.93.93 0 0 1-.43.41 8.3 8.3 0 0 1-.85.39 9.67 9.67 0 0 1-1.08.36 9.19 9.19 0 0 1-1.12.22 8.74 8.74 0 0 1-1.12.07 7.61 7.61 0 0 1-3-.57 6.22 6.22 0 0 1-2.26-1.63 7.25 7.25 0 0 1-1.41-2.55 10.49 10.49 0 0 1-.49-3.31 10.61 10.61 0 0 1 .53-3.45 7.66 7.66 0 0 1 1.48-2.63 6.64 6.64 0 0 1 2.3-1.68 7.17 7.17 0 0 1 3-.6 7.51 7.51 0 0 1 1.58.16 9.32 9.32 0 0 1 1.31.38 5.06 5.06 0 0 1 1 .47 2.83 2.83 0 0 1 .54.41.88.88 0 0 1 .2.37 2.52 2.52 0 0 1-.02.69zM408.86 150.45a2.84 2.84 0 0 1 0 .39.85.85 0 0 1-.08.28.39.39 0 0 1-.13.16.27.27 0 0 1-.16 0h-7a.75.75 0 0 1-.49-.19.83.83 0 0 1-.23-.68v-14.19a.83.83 0 0 1 .23-.67.77.77 0 0 1 .49-.19h7a.29.29 0 0 1 .16.05.31.31 0 0 1 .12.16 1.47 1.47 0 0 1 .07.28 2.73 2.73 0 0 1 0 .41 2.57 2.57 0 0 1 0 .39 1.34 1.34 0 0 1-.07.27.33.33 0 0 1-.12.15.28.28 0 0 1-.16 0h-5.73v5h4.92a.25.25 0 0 1 .16.06.4.4 0 0 1 .13.15.85.85 0 0 1 .07.27 3.13 3.13 0 0 1 0 .41 2.67 2.67 0 0 1 0 .38.88.88 0 0 1-.07.26.35.35 0 0 1-.12.14.33.33 0 0 1-.16 0h-4.92v5.72h5.81a.29.29 0 0 1 .16 0 .42.42 0 0 1 .13.16.78.78 0 0 1 .08.27 3 3 0 0 1-.09.56zm-2.7-19.51a1.27 1.27 0 0 1 .24-.25.89.89 0 0 1 .27-.13 1.4 1.4 0 0 1 .35-.07h.49a2.09 2.09 0 0 1 .53.06.6.6 0 0 1 .27.14.2.2 0 0 1 0 .2.61.61 0 0 1-.13.23l-2.57 2.62a1.28 1.28 0 0 1-.21.19.78.78 0 0 1-.22.11 1.2 1.2 0 0 1-.29.06h-.4a2.21 2.21 0 0 1-.41 0 .34.34 0 0 1-.2-.1.18.18 0 0 1 0-.17.66.66 0 0 1 .13-.23zM424.21 150.45a2.84 2.84 0 0 1 0 .39.9.9 0 0 1-.08.28.39.39 0 0 1-.13.16.27.27 0 0 1-.16 0h-7a.76.76 0 0 1-.49-.19.84.84 0 0 1-.23-.68v-14.19a.84.84 0 0 1 .23-.67.77.77 0 0 1 .49-.19h7a.29.29 0 0 1 .16.05.3.3 0 0 1 .12.16 1.33 1.33 0 0 1 .08.28 2.73 2.73 0 0 1 0 .41 2.57 2.57 0 0 1 0 .39 1.22 1.22 0 0 1-.08.27.32.32 0 0 1-.12.15.29.29 0 0 1-.16 0H418v5h4.92a.26.26 0 0 1 .16.06.42.42 0 0 1 .13.15.81.81 0 0 1 .07.27 2.81 2.81 0 0 1 0 .41 2.41 2.41 0 0 1 0 .38.82.82 0 0 1-.07.26.37.37 0 0 1-.12.14.34.34 0 0 1-.16 0H418v5.72h5.81a.29.29 0 0 1 .16 0 .42.42 0 0 1 .13.16.83.83 0 0 1 .08.27 3 3 0 0 1 .03.56z"/>
</svg>
